<svg xmlns="http://www.w3.org/2000/svg" viewBox="0 0 610 157" width="1220" height="314">
<defs><clipPath id="material-clip"><path d="M0 0 L610 0 L589 157 L21 157 Z"/></clipPath><linearGradient id="board-light" x1="0" y1="0" x2="0" y2="1"><stop offset="0" stop-color="#F3E8D2"/><stop offset="0.18" stop-color="#DDCDB3"/><stop offset="0.8" stop-color="#DDCDB3"/><stop offset="1" stop-color="#C4B192"/></linearGradient><mask id="board-silhouette"><rect width="610" height="157" fill="white"/><path d="M0 0 H0 L0 0 Z" transform="translate(96 5)" fill="black"/><path d="M0 0 H0 L0 0 Z" transform="translate(514 5) scale(-1 1)" fill="black"/></mask><clipPath id="cut-edge-29-l"><rect x="8" y="53" width="96" height="24" rx="12" /></clipPath><linearGradient id="cavity-edge-29-l" x1="0" y1="0" x2="0" y2="1"><stop offset="0" stop-color="#3B3024"/><stop offset="0.55" stop-color="#8D7657"/><stop offset="1" stop-color="#917B5A"/></linearGradient><clipPath id="cut-pocket-3f-29-l"><rect x="117" y="56" width="66" height="24" rx="12" /></clipPath><linearGradient id="cavity-pocket-3f-29-l" x1="0" y1="0" x2="0" y2="1"><stop offset="0" stop-color="#3B3024"/><stop offset="0.55" stop-color="#63523D"/><stop offset="1" stop-color="#8D7657"/></linearGradient><clipPath id="cut-pocket-2f-29-l"><rect x="198" y="56" width="47" height="24" rx="12" /></clipPath><linearGradient id="cavity-pocket-2f-29-l" x1="0" y1="0" x2="0" y2="1"><stop offset="0" stop-color="#3B3024"/><stop offset="0.55" stop-color="#63523D"/><stop offset="1" stop-color="#8D7657"/></linearGradient><clipPath id="cut-pocket-4f-29"><rect x="256" y="56" width="98" height="24" rx="12" /></clipPath><linearGradient id="cavity-pocket-4f-29" x1="0" y1="0" x2="0" y2="1"><stop offset="0" stop-color="#3B3024"/><stop offset="0.55" stop-color="#63523D"/><stop offset="1" stop-color="#8D7657"/></linearGradient><clipPath id="cut-pocket-2f-29-r"><rect x="365" y="56" width="47" height="24" rx="12" /></clipPath><linearGradient id="cavity-pocket-2f-29-r" x1="0" y1="0" x2="0" y2="1"><stop offset="0" stop-color="#3B3024"/><stop offset="0.55" stop-color="#63523D"/><stop offset="1" stop-color="#8D7657"/></linearGradient><clipPath id="cut-pocket-3f-29-r"><rect x="427" y="56" width="66" height="24" rx="12" /></clipPath><linearGradient id="cavity-pocket-3f-29-r" x1="0" y1="0" x2="0" y2="1"><stop offset="0" stop-color="#3B3024"/><stop offset="0.55" stop-color="#63523D"/><stop offset="1" stop-color="#8D7657"/></linearGradient><clipPath id="cut-edge-29-r"><rect x="506" y="53" width="96" height="24" rx="12" /></clipPath><linearGradient id="cavity-edge-29-r" x1="0" y1="0" x2="0" y2="1"><stop offset="0" stop-color="#3B3024"/><stop offset="0.55" stop-color="#8D7657"/><stop offset="1" stop-color="#917B5A"/></linearGradient><clipPath id="cut-edge-19-l"><rect x="16" y="109" width="96" height="25" rx="12.5" /></clipPath><linearGradient id="cavity-edge-19-l" x1="0" y1="0" x2="0" y2="1"><stop offset="0" stop-color="#3B3024"/><stop offset="0.55" stop-color="#8D7657"/><stop offset="1" stop-color="#917B5A"/></linearGradient><clipPath id="cut-pocket-3f-19-l"><rect x="128" y="111" width="62" height="24" rx="12" /></clipPath><linearGradient id="cavity-pocket-3f-19-l" x1="0" y1="0" x2="0" y2="1"><stop offset="0" stop-color="#3B3024"/><stop offset="0.55" stop-color="#63523D"/><stop offset="1" stop-color="#8D7657"/></linearGradient><clipPath id="cut-pocket-2f-19-l"><rect x="206" y="111" width="39" height="24" rx="12" /></clipPath><linearGradient id="cavity-pocket-2f-19-l" x1="0" y1="0" x2="0" y2="1"><stop offset="0" stop-color="#3B3024"/><stop offset="0.55" stop-color="#63523D"/><stop offset="1" stop-color="#8D7657"/></linearGradient><clipPath id="cut-pocket-4f-19"><rect x="256" y="111" width="98" height="24" rx="12" /></clipPath><linearGradient id="cavity-pocket-4f-19" x1="0" y1="0" x2="0" y2="1"><stop offset="0" stop-color="#3B3024"/><stop offset="0.55" stop-color="#63523D"/><stop offset="1" stop-color="#8D7657"/></linearGradient><clipPath id="cut-pocket-2f-19-r"><rect x="365" y="111" width="39" height="24" rx="12" /></clipPath><linearGradient id="cavity-pocket-2f-19-r" x1="0" y1="0" x2="0" y2="1"><stop offset="0" stop-color="#3B3024"/><stop offset="0.55" stop-color="#63523D"/><stop offset="1" stop-color="#8D7657"/></linearGradient><clipPath id="cut-pocket-3f-19-r"><rect x="420" y="111" width="62" height="24" rx="12" /></clipPath><linearGradient id="cavity-pocket-3f-19-r" x1="0" y1="0" x2="0" y2="1"><stop offset="0" stop-color="#3B3024"/><stop offset="0.55" stop-color="#63523D"/><stop offset="1" stop-color="#8D7657"/></linearGradient><clipPath id="cut-edge-19-r"><rect x="498" y="109" width="96" height="25" rx="12.5" /></clipPath><linearGradient id="cavity-edge-19-r" x1="0" y1="0" x2="0" y2="1"><stop offset="0" stop-color="#3B3024"/><stop offset="0.55" stop-color="#8D7657"/><stop offset="1" stop-color="#917B5A"/></linearGradient></defs>
<path d="M0 0 L610 0 L589 157 L21 157 Z" stroke-linejoin="round" fill="url(#board-light)" stroke="#978466" stroke-width="0.6" mask="url(#board-silhouette)"/>

<g opacity="0.1" fill="none" stroke="#846B4A" stroke-width="0.5" clip-path="url(#material-clip)"><path d="M0 12.076923076923077 C122 9.076923076923077 183 16.076923076923077 305 12.076923076923077 S488 9.076923076923077 610 13.076923076923077"/><path d="M0 24.153846153846153 C122 21.153846153846153 183 28.153846153846153 305 24.153846153846153 S488 21.153846153846153 610 25.153846153846153"/><path d="M0 36.23076923076923 C122 33.23076923076923 183 40.23076923076923 305 36.23076923076923 S488 33.23076923076923 610 37.23076923076923"/><path d="M0 48.30769230769231 C122 45.30769230769231 183 52.30769230769231 305 48.30769230769231 S488 45.30769230769231 610 49.30769230769231"/><path d="M0 60.38461538461539 C122 57.38461538461539 183 64.38461538461539 305 60.38461538461539 S488 57.38461538461539 610 61.38461538461539"/><path d="M0 72.46153846153847 C122 69.46153846153847 183 76.46153846153847 305 72.46153846153847 S488 69.46153846153847 610 73.46153846153847"/><path d="M0 84.53846153846153 C122 81.53846153846153 183 88.53846153846153 305 84.53846153846153 S488 81.53846153846153 610 85.53846153846153"/><path d="M0 96.61538461538461 C122 93.61538461538461 183 100.61538461538461 305 96.61538461538461 S488 93.61538461538461 610 97.61538461538461"/><path d="M0 108.6923076923077 C122 105.6923076923077 183 112.6923076923077 305 108.6923076923077 S488 105.6923076923077 610 109.6923076923077"/><path d="M0 120.76923076923077 C122 117.76923076923077 183 124.76923076923077 305 120.76923076923077 S488 117.76923076923077 610 121.76923076923077"/><path d="M0 132.84615384615384 C122 129.84615384615384 183 136.84615384615384 305 132.84615384615384 S488 129.84615384615384 610 133.84615384615384"/><path d="M0 144.92307692307693 C122 141.92307692307693 183 148.92307692307693 305 144.92307692307693 S488 141.92307692307693 610 145.92307692307693"/></g>
<g data-hold="jug-l"><g transform="translate(2 2)">
      <rect x="0" y="0" width="92" height="28" rx="7" fill="#C4B192" stroke="#978466" stroke-width="0.8" stroke-linejoin="round"/>
      <path d="M8 6 H84" fill="none" stroke="#efe3cc" stroke-width="6" stroke-linecap="round"/>
      <path d="M8 22 H84" fill="none" stroke="#3B3024" stroke-width="3.5999999999999996" stroke-linecap="round" opacity="0.7"/>
    </g></g>
<g data-hold="sloper-flat-l"><g transform="translate(96 5)">
    <path d="M0 0 L0 0 H99 Q102 0 102 3
    V13.696317795112478 Q102 16.696317795112478 99 16.696317795112478
    H3 Q0 16.696317795112478 0 13.696317795112478 Z" fill="#c4b192" stroke="#978466" stroke-width="0.8" stroke-linejoin="round"/>
    <path d="M3 2 H97" stroke="#efe3cc" stroke-width="2.5" stroke-linecap="round"/>
    <path d="M4 14.696317795112478 H98" stroke="#917B5A" stroke-width="3" stroke-linecap="round"/>
  </g>
  </g>
<g data-hold="sloper-round"><g transform="translate(198 5)">
    <path d="M0 0 L0 0 H211 Q214 0 214 3
    V13.696317795112478 Q214 16.696317795112478 211 16.696317795112478
    H3 Q0 16.696317795112478 0 13.696317795112478 Z" fill="#c4b192" stroke="#978466" stroke-width="0.8" stroke-linejoin="round"/>
    <path d="M3 2 H209" stroke="#efe3cc" stroke-width="2.5" stroke-linecap="round"/>
    <path d="M4 14.696317795112478 H210" stroke="#917B5A" stroke-width="3" stroke-linecap="round"/>
  </g>
  </g>
<g data-hold="sloper-flat-r"><g transform="translate(514 5) scale(-1 1)">
    <path d="M0 0 L0 0 H99 Q102 0 102 3
    V13.696317795112478 Q102 16.696317795112478 99 16.696317795112478
    H3 Q0 16.696317795112478 0 13.696317795112478 Z" fill="#c4b192" stroke="#978466" stroke-width="0.8" stroke-linejoin="round"/>
    <path d="M3 2 H97" stroke="#efe3cc" stroke-width="2.5" stroke-linecap="round"/>
    <path d="M4 14.696317795112478 H98" stroke="#917B5A" stroke-width="3" stroke-linecap="round"/>
  </g>
  </g>
<g data-hold="jug-r"><g transform="translate(516 2)">
      <rect x="0" y="0" width="92" height="28" rx="7" fill="#C4B192" stroke="#978466" stroke-width="0.8" stroke-linejoin="round"/>
      <path d="M8 6 H84" fill="none" stroke="#efe3cc" stroke-width="6" stroke-linecap="round"/>
      <path d="M8 22 H84" fill="none" stroke="#3B3024" stroke-width="3.5999999999999996" stroke-linecap="round" opacity="0.7"/>
    </g></g>
<g data-hold="edge-29-l"><rect x="8" y="53" width="96" height="24" rx="12" fill="none" stroke="#F3E8D2" stroke-width="1.7" transform="translate(0 1.2)"/><rect x="8" y="53" width="96" height="24" rx="12" fill="url(#cavity-edge-29-l)"/><rect x="8" y="71.48" width="96" height="5.5200000000000005" fill="#C4B192" opacity="0.55" clip-path="url(#cut-edge-29-l)"/><rect x="8" y="53" width="96" height="24" rx="12" fill="none" stroke="#978466" stroke-width="0.55"/></g>
<g data-hold="pocket-3f-29-l"><rect x="117" y="56" width="66" height="24" rx="12" fill="none" stroke="#F3E8D2" stroke-width="1.7" transform="translate(0 1.2)"/><rect x="117" y="56" width="66" height="24" rx="12" fill="url(#cavity-pocket-3f-29-l)"/><rect x="117" y="74.48" width="66" height="5.5200000000000005" fill="#C4B192" opacity="0.18" clip-path="url(#cut-pocket-3f-29-l)"/><rect x="117" y="56" width="66" height="24" rx="12" fill="none" stroke="#978466" stroke-width="0.55"/></g>
<g data-hold="pocket-2f-29-l"><rect x="198" y="56" width="47" height="24" rx="12" fill="none" stroke="#F3E8D2" stroke-width="1.7" transform="translate(0 1.2)"/><rect x="198" y="56" width="47" height="24" rx="12" fill="url(#cavity-pocket-2f-29-l)"/><rect x="198" y="74.48" width="47" height="5.5200000000000005" fill="#C4B192" opacity="0.18" clip-path="url(#cut-pocket-2f-29-l)"/><rect x="198" y="56" width="47" height="24" rx="12" fill="none" stroke="#978466" stroke-width="0.55"/></g>
<g data-hold="pocket-4f-29"><rect x="256" y="56" width="98" height="24" rx="12" fill="none" stroke="#F3E8D2" stroke-width="1.7" transform="translate(0 1.2)"/><rect x="256" y="56" width="98" height="24" rx="12" fill="url(#cavity-pocket-4f-29)"/><rect x="256" y="74.48" width="98" height="5.5200000000000005" fill="#C4B192" opacity="0.18" clip-path="url(#cut-pocket-4f-29)"/><rect x="256" y="56" width="98" height="24" rx="12" fill="none" stroke="#978466" stroke-width="0.55"/></g>
<g data-hold="pocket-2f-29-r"><rect x="365" y="56" width="47" height="24" rx="12" fill="none" stroke="#F3E8D2" stroke-width="1.7" transform="translate(0 1.2)"/><rect x="365" y="56" width="47" height="24" rx="12" fill="url(#cavity-pocket-2f-29-r)"/><rect x="365" y="74.48" width="47" height="5.5200000000000005" fill="#C4B192" opacity="0.18" clip-path="url(#cut-pocket-2f-29-r)"/><rect x="365" y="56" width="47" height="24" rx="12" fill="none" stroke="#978466" stroke-width="0.55"/></g>
<g data-hold="pocket-3f-29-r"><rect x="427" y="56" width="66" height="24" rx="12" fill="none" stroke="#F3E8D2" stroke-width="1.7" transform="translate(0 1.2)"/><rect x="427" y="56" width="66" height="24" rx="12" fill="url(#cavity-pocket-3f-29-r)"/><rect x="427" y="74.48" width="66" height="5.5200000000000005" fill="#C4B192" opacity="0.18" clip-path="url(#cut-pocket-3f-29-r)"/><rect x="427" y="56" width="66" height="24" rx="12" fill="none" stroke="#978466" stroke-width="0.55"/></g>
<g data-hold="edge-29-r"><rect x="506" y="53" width="96" height="24" rx="12" fill="none" stroke="#F3E8D2" stroke-width="1.7" transform="translate(0 1.2)"/><rect x="506" y="53" width="96" height="24" rx="12" fill="url(#cavity-edge-29-r)"/><rect x="506" y="71.48" width="96" height="5.5200000000000005" fill="#C4B192" opacity="0.55" clip-path="url(#cut-edge-29-r)"/><rect x="506" y="53" width="96" height="24" rx="12" fill="none" stroke="#978466" stroke-width="0.55"/></g>
<g data-hold="edge-19-l"><rect x="16" y="109" width="96" height="25" rx="12.5" fill="none" stroke="#F3E8D2" stroke-width="1.7" transform="translate(0 1.2)"/><rect x="16" y="109" width="96" height="25" rx="12.5" fill="url(#cavity-edge-19-l)"/><rect x="16" y="128.25" width="96" height="5.75" fill="#C4B192" opacity="0.55" clip-path="url(#cut-edge-19-l)"/><rect x="16" y="109" width="96" height="25" rx="12.5" fill="none" stroke="#978466" stroke-width="0.55"/></g>
<g data-hold="pocket-3f-19-l"><rect x="128" y="111" width="62" height="24" rx="12" fill="none" stroke="#F3E8D2" stroke-width="1.7" transform="translate(0 1.2)"/><rect x="128" y="111" width="62" height="24" rx="12" fill="url(#cavity-pocket-3f-19-l)"/><rect x="128" y="129.48" width="62" height="5.5200000000000005" fill="#C4B192" opacity="0.18" clip-path="url(#cut-pocket-3f-19-l)"/><rect x="128" y="111" width="62" height="24" rx="12" fill="none" stroke="#978466" stroke-width="0.55"/></g>
<g data-hold="pocket-2f-19-l"><rect x="206" y="111" width="39" height="24" rx="12" fill="none" stroke="#F3E8D2" stroke-width="1.7" transform="translate(0 1.2)"/><rect x="206" y="111" width="39" height="24" rx="12" fill="url(#cavity-pocket-2f-19-l)"/><rect x="206" y="129.48" width="39" height="5.5200000000000005" fill="#C4B192" opacity="0.18" clip-path="url(#cut-pocket-2f-19-l)"/><rect x="206" y="111" width="39" height="24" rx="12" fill="none" stroke="#978466" stroke-width="0.55"/></g>
<g data-hold="pocket-4f-19"><rect x="256" y="111" width="98" height="24" rx="12" fill="none" stroke="#F3E8D2" stroke-width="1.7" transform="translate(0 1.2)"/><rect x="256" y="111" width="98" height="24" rx="12" fill="url(#cavity-pocket-4f-19)"/><rect x="256" y="129.48" width="98" height="5.5200000000000005" fill="#C4B192" opacity="0.18" clip-path="url(#cut-pocket-4f-19)"/><rect x="256" y="111" width="98" height="24" rx="12" fill="none" stroke="#978466" stroke-width="0.55"/></g>
<g data-hold="pocket-2f-19-r"><rect x="365" y="111" width="39" height="24" rx="12" fill="none" stroke="#F3E8D2" stroke-width="1.7" transform="translate(0 1.2)"/><rect x="365" y="111" width="39" height="24" rx="12" fill="url(#cavity-pocket-2f-19-r)"/><rect x="365" y="129.48" width="39" height="5.5200000000000005" fill="#C4B192" opacity="0.18" clip-path="url(#cut-pocket-2f-19-r)"/><rect x="365" y="111" width="39" height="24" rx="12" fill="none" stroke="#978466" stroke-width="0.55"/></g>
<g data-hold="pocket-3f-19-r"><rect x="420" y="111" width="62" height="24" rx="12" fill="none" stroke="#F3E8D2" stroke-width="1.7" transform="translate(0 1.2)"/><rect x="420" y="111" width="62" height="24" rx="12" fill="url(#cavity-pocket-3f-19-r)"/><rect x="420" y="129.48" width="62" height="5.5200000000000005" fill="#C4B192" opacity="0.18" clip-path="url(#cut-pocket-3f-19-r)"/><rect x="420" y="111" width="62" height="24" rx="12" fill="none" stroke="#978466" stroke-width="0.55"/></g>
<g data-hold="edge-19-r"><rect x="498" y="109" width="96" height="25" rx="12.5" fill="none" stroke="#F3E8D2" stroke-width="1.7" transform="translate(0 1.2)"/><rect x="498" y="109" width="96" height="25" rx="12.5" fill="url(#cavity-edge-19-r)"/><rect x="498" y="128.25" width="96" height="5.75" fill="#C4B192" opacity="0.55" clip-path="url(#cut-edge-19-r)"/><rect x="498" y="109" width="96" height="25" rx="12.5" fill="none" stroke="#978466" stroke-width="0.55"/></g>
<g><circle cx="112" cy="46" r="2.5" fill="#F7F3E9" opacity="0.65"/><circle cx="112" cy="46" r="1.45" fill="#35342D"/><path d="M111 46h2" stroke="#CFCFC9" stroke-width="0.5"/><circle cx="252" cy="46" r="2.5" fill="#F7F3E9" opacity="0.65"/><circle cx="252" cy="46" r="1.45" fill="#35342D"/><path d="M251 46h2" stroke="#CFCFC9" stroke-width="0.5"/><circle cx="362" cy="46" r="2.5" fill="#F7F3E9" opacity="0.65"/><circle cx="362" cy="46" r="1.45" fill="#35342D"/><path d="M361 46h2" stroke="#CFCFC9" stroke-width="0.5"/><circle cx="499" cy="46" r="2.5" fill="#F7F3E9" opacity="0.65"/><circle cx="499" cy="46" r="1.45" fill="#35342D"/><path d="M498 46h2" stroke="#CFCFC9" stroke-width="0.5"/><circle cx="125" cy="106" r="2.5" fill="#F7F3E9" opacity="0.65"/><circle cx="125" cy="106" r="1.45" fill="#35342D"/><path d="M124 106h2" stroke="#CFCFC9" stroke-width="0.5"/><circle cx="483" cy="106" r="2.5" fill="#F7F3E9" opacity="0.65"/><circle cx="483" cy="106" r="1.45" fill="#35342D"/><path d="M482 106h2" stroke="#CFCFC9" stroke-width="0.5"/></g>
</svg>