<svg xmlns="http://www.w3.org/2000/svg" viewBox="0 0 580 150" width="1160" height="300">
<defs><clipPath id="clip-jug-l"><path d="M128 0H60A60 60 0 0 0 0 60V60H30V28H128Z" /></clipPath><clipPath id="clip-sloper-35-l"><rect x="128" y="0" width="90" height="28" rx="7" /></clipPath><linearGradient id="grad-sloper-35-l" x1="0" y1="0" x2="0" y2="1"><stop offset="0" stop-color="#D6C3A9"/><stop offset="0.45" stop-color="#D6C3A9"/><stop offset="1" stop-color="#b29b7a"/></linearGradient><clipPath id="clip-sloper-20"><rect x="218" y="0" width="144" height="28" rx="7" /></clipPath><linearGradient id="grad-sloper-20" x1="0" y1="0" x2="0" y2="1"><stop offset="0" stop-color="#D6C3A9"/><stop offset="0.60" stop-color="#D6C3A9"/><stop offset="1" stop-color="#c2ac8e"/></linearGradient><clipPath id="clip-sloper-35-r"><rect x="362" y="0" width="90" height="28" rx="7" /></clipPath><linearGradient id="grad-sloper-35-r" x1="0" y1="0" x2="0" y2="1"><stop offset="0" stop-color="#D6C3A9"/><stop offset="0.45" stop-color="#D6C3A9"/><stop offset="1" stop-color="#b29b7a"/></linearGradient><clipPath id="clip-jug-r"><path d="M452 0H520A60 60 0 0 1 580 60V60H550V28H452Z" /></clipPath><clipPath id="clip-edge-small-l"><rect x="41" y="32" width="72" height="20" rx="10" /></clipPath><clipPath id="clip-pocket-4f-deep-l"><rect x="223" y="32" width="55" height="20" rx="10" /></clipPath><clipPath id="clip-pocket-4f-deep-r"><rect x="302" y="32" width="55" height="20" rx="10" /></clipPath><clipPath id="clip-edge-small-r"><rect x="467" y="32" width="72" height="20" rx="10" /></clipPath><clipPath id="clip-edge-large-l"><rect x="32" y="67" width="78" height="22" rx="11" /></clipPath><clipPath id="clip-pocket-2f-deep-l"><rect x="125" y="67" width="37" height="22" rx="11" /></clipPath><clipPath id="clip-pocket-3f-deep-l"><rect x="174" y="67" width="58" height="22" rx="11" /></clipPath><clipPath id="clip-slot-flat"><rect x="246" y="67" width="88" height="22" rx="11" /></clipPath><clipPath id="clip-pocket-3f-deep-r"><rect x="348" y="67" width="58" height="22" rx="11" /></clipPath><clipPath id="clip-pocket-2f-deep-r"><rect x="418" y="67" width="37" height="22" rx="11" /></clipPath><clipPath id="clip-edge-large-r"><rect x="470" y="67" width="78" height="22" rx="11" /></clipPath><clipPath id="clip-edge-medium-l"><rect x="75" y="109" width="82" height="24" rx="12" /></clipPath><clipPath id="clip-pocket-2f-shallow-l"><rect x="173" y="109" width="40" height="24" rx="12" /></clipPath><clipPath id="clip-pocket-3f-shallow-l"><rect x="226" y="109" width="55" height="24" rx="12" /></clipPath><clipPath id="clip-pocket-3f-shallow-r"><rect x="299" y="109" width="55" height="24" rx="12" /></clipPath><clipPath id="clip-pocket-2f-shallow-r"><rect x="367" y="109" width="40" height="24" rx="12" /></clipPath><clipPath id="clip-edge-medium-r"><rect x="423" y="109" width="82" height="24" rx="12" /></clipPath></defs>
<rect x="0.5" y="0.5" width="579" height="149" rx="60" fill="#E8DBC9" stroke="#8F6D3D" stroke-width="1"/>
<path d="M128 0H60A60 60 0 0 0 0 60V60H30V28H128Z" fill="#D6C3A9"/><path d="M124 5H60A55 55 0 0 0 5 60V54" fill="none" stroke="#F6F1EA" stroke-width="8" stroke-linecap="round" opacity="0.75" clip-path="url(#clip-jug-l)"/><path d="M128 0H60A60 60 0 0 0 0 60V60H30V28H128Z" fill="none" stroke="#8F6D3D" stroke-width="0.7"/>
<rect x="128" y="0" width="90" height="28" rx="7" fill="url(#grad-sloper-35-l)"/><rect x="128" y="0" width="90" height="28" rx="7" fill="none" stroke="#8F6D3D" stroke-width="0.7"/>
<rect x="218" y="0" width="144" height="28" rx="7" fill="url(#grad-sloper-20)"/><rect x="218" y="0" width="144" height="28" rx="7" fill="none" stroke="#8F6D3D" stroke-width="0.7"/>
<rect x="362" y="0" width="90" height="28" rx="7" fill="url(#grad-sloper-35-r)"/><rect x="362" y="0" width="90" height="28" rx="7" fill="none" stroke="#8F6D3D" stroke-width="0.7"/>
<path d="M452 0H520A60 60 0 0 1 580 60V60H550V28H452Z" fill="#D6C3A9"/><path d="M456 5H520A55 55 0 0 1 575 60V54" fill="none" stroke="#F6F1EA" stroke-width="8" stroke-linecap="round" opacity="0.75" clip-path="url(#clip-jug-r)"/><path d="M452 0H520A60 60 0 0 1 580 60V60H550V28H452Z" fill="none" stroke="#8F6D3D" stroke-width="0.7"/>
<rect x="41" y="32" width="72" height="20" rx="10" fill="#9b866a"/><rect x="41" y="32" width="72" height="6" fill="#5A4B39" opacity="0.5" clip-path="url(#clip-edge-small-l)"/><rect x="41" y="47.6" width="72" height="4.4" fill="#F6F1EA" clip-path="url(#clip-edge-small-l)"/><rect x="41" y="32" width="72" height="20" rx="10" fill="none" stroke="#8F6D3D" stroke-width="0.7"/>
<rect x="223" y="32" width="55" height="20" rx="10" fill="#7A6952"/><ellipse cx="250.5" cy="36.4" rx="27.5" ry="6.4" fill="#5A4B39" opacity="0.6" clip-path="url(#clip-pocket-4f-deep-l)"/><rect x="223" y="32" width="55" height="20" rx="10" fill="none" stroke="#8F6D3D" stroke-width="0.7"/>
<rect x="302" y="32" width="55" height="20" rx="10" fill="#7A6952"/><ellipse cx="329.5" cy="36.4" rx="27.5" ry="6.4" fill="#5A4B39" opacity="0.6" clip-path="url(#clip-pocket-4f-deep-r)"/><rect x="302" y="32" width="55" height="20" rx="10" fill="none" stroke="#8F6D3D" stroke-width="0.7"/>
<rect x="467" y="32" width="72" height="20" rx="10" fill="#9b866a"/><rect x="467" y="32" width="72" height="6" fill="#5A4B39" opacity="0.5" clip-path="url(#clip-edge-small-r)"/><rect x="467" y="47.6" width="72" height="4.4" fill="#F6F1EA" clip-path="url(#clip-edge-small-r)"/><rect x="467" y="32" width="72" height="20" rx="10" fill="none" stroke="#8F6D3D" stroke-width="0.7"/>
<rect x="32" y="67" width="78" height="22" rx="11" fill="#7a6952"/><rect x="32" y="67" width="78" height="6.6" fill="#5A4B39" opacity="0.5" clip-path="url(#clip-edge-large-l)"/><rect x="32" y="84.16" width="78" height="4.84" fill="#F6F1EA" clip-path="url(#clip-edge-large-l)"/><rect x="32" y="67" width="78" height="22" rx="11" fill="none" stroke="#8F6D3D" stroke-width="0.7"/>
<rect x="125" y="67" width="37" height="22" rx="11" fill="#7A6952"/><ellipse cx="143.5" cy="71.84" rx="18.5" ry="7.04" fill="#5A4B39" opacity="0.6" clip-path="url(#clip-pocket-2f-deep-l)"/><rect x="125" y="67" width="37" height="22" rx="11" fill="none" stroke="#8F6D3D" stroke-width="0.7"/>
<rect x="174" y="67" width="58" height="22" rx="11" fill="#7A6952"/><ellipse cx="203" cy="71.84" rx="29" ry="7.04" fill="#5A4B39" opacity="0.6" clip-path="url(#clip-pocket-3f-deep-l)"/><rect x="174" y="67" width="58" height="22" rx="11" fill="none" stroke="#8F6D3D" stroke-width="0.7"/>
<rect x="246" y="67" width="88" height="22" rx="11" fill="#7A6952"/><ellipse cx="290" cy="71.84" rx="44" ry="7.04" fill="#5A4B39" opacity="0.6" clip-path="url(#clip-slot-flat)"/><rect x="246" y="67" width="88" height="22" rx="11" fill="none" stroke="#8F6D3D" stroke-width="0.7"/>
<rect x="348" y="67" width="58" height="22" rx="11" fill="#7A6952"/><ellipse cx="377" cy="71.84" rx="29" ry="7.04" fill="#5A4B39" opacity="0.6" clip-path="url(#clip-pocket-3f-deep-r)"/><rect x="348" y="67" width="58" height="22" rx="11" fill="none" stroke="#8F6D3D" stroke-width="0.7"/>
<rect x="418" y="67" width="37" height="22" rx="11" fill="#7A6952"/><ellipse cx="436.5" cy="71.84" rx="18.5" ry="7.04" fill="#5A4B39" opacity="0.6" clip-path="url(#clip-pocket-2f-deep-r)"/><rect x="418" y="67" width="37" height="22" rx="11" fill="none" stroke="#8F6D3D" stroke-width="0.7"/>
<rect x="470" y="67" width="78" height="22" rx="11" fill="#7a6952"/><rect x="470" y="67" width="78" height="6.6" fill="#5A4B39" opacity="0.5" clip-path="url(#clip-edge-large-r)"/><rect x="470" y="84.16" width="78" height="4.84" fill="#F6F1EA" clip-path="url(#clip-edge-large-r)"/><rect x="470" y="67" width="78" height="22" rx="11" fill="none" stroke="#8F6D3D" stroke-width="0.7"/>
<rect x="75" y="109" width="82" height="24" rx="12" fill="#958166"/><rect x="75" y="109" width="82" height="7.199999999999999" fill="#5A4B39" opacity="0.5" clip-path="url(#clip-edge-medium-l)"/><rect x="75" y="128" width="82" height="5" fill="#F6F1EA" clip-path="url(#clip-edge-medium-l)"/><rect x="75" y="109" width="82" height="24" rx="12" fill="none" stroke="#8F6D3D" stroke-width="0.7"/>
<rect x="173" y="109" width="40" height="24" rx="12" fill="#7A6952"/><ellipse cx="193" cy="114.28" rx="20" ry="7.68" fill="#5A4B39" opacity="0.6" clip-path="url(#clip-pocket-2f-shallow-l)"/><rect x="173" y="109" width="40" height="24" rx="12" fill="none" stroke="#8F6D3D" stroke-width="0.7"/>
<rect x="226" y="109" width="55" height="24" rx="12" fill="#7A6952"/><ellipse cx="253.5" cy="114.28" rx="27.5" ry="7.68" fill="#5A4B39" opacity="0.6" clip-path="url(#clip-pocket-3f-shallow-l)"/><rect x="226" y="109" width="55" height="24" rx="12" fill="none" stroke="#8F6D3D" stroke-width="0.7"/>
<rect x="299" y="109" width="55" height="24" rx="12" fill="#7A6952"/><ellipse cx="326.5" cy="114.28" rx="27.5" ry="7.68" fill="#5A4B39" opacity="0.6" clip-path="url(#clip-pocket-3f-shallow-r)"/><rect x="299" y="109" width="55" height="24" rx="12" fill="none" stroke="#8F6D3D" stroke-width="0.7"/>
<rect x="367" y="109" width="40" height="24" rx="12" fill="#7A6952"/><ellipse cx="387" cy="114.28" rx="20" ry="7.68" fill="#5A4B39" opacity="0.6" clip-path="url(#clip-pocket-2f-shallow-r)"/><rect x="367" y="109" width="40" height="24" rx="12" fill="none" stroke="#8F6D3D" stroke-width="0.7"/>
<rect x="423" y="109" width="82" height="24" rx="12" fill="#958166"/><rect x="423" y="109" width="82" height="7.199999999999999" fill="#5A4B39" opacity="0.5" clip-path="url(#clip-edge-medium-r)"/><rect x="423" y="128" width="82" height="5" fill="#F6F1EA" clip-path="url(#clip-edge-medium-r)"/><rect x="423" y="109" width="82" height="24" rx="12" fill="none" stroke="#8F6D3D" stroke-width="0.7"/>
</svg>